<svg xmlns="http://www.w3.org/2000/svg" width="91" height="86"><path d="M57.98 83.863a1.397 1.397 0 01-.386.104 47.74 47.74 0 01-24.508 0 1.412 1.412 0 01-.368-.1c-11.084-3.053-20.526-9.965-26.414-19.335a1.223 1.223 0 01-.241-.395C2.078 57.644-.02 50.275-.02 42.773c0-7.502 2.098-14.87 6.083-21.363a1.21 1.21 0 01.241-.395c5.893-9.378 15.344-16.292 26.439-19.343a1.41 1.41 0 01.35-.094 47.738 47.738 0 0124.5 0c.123.018.243.05.356.1 11.092 3.05 20.54 9.962 26.434 19.337.105.116.187.25.24.395 3.985 6.492 6.084 13.861 6.084 21.363 0 7.502-2.099 14.871-6.083 21.364a1.224 1.224 0 01-.241.395C78.495 73.898 69.06 80.808 57.98 83.863zm-11.297-.856a44.89 44.89 0 009.97-1.413c3.484-4.036 6.348-9.743 8.339-16.612H46.683zm-2.68-.002V64.981H25.696c1.99 6.87 4.855 12.577 8.339 16.612a44.897 44.897 0 009.97 1.412zM2.694 44.037C2.9 50.5 4.763 56.82 8.126 62.455h14.145a78.634 78.634 0 01-1.378-7.223H9.933a1.38 1.38 0 01-.947-.37 1.23 1.23 0 01-.393-.894v-9.932h-5.9zm5.433-20.945C4.763 28.727 2.9 35.046 2.693 41.51h5.9v-9.93c0-.167.035-.331.102-.485.067-.153.166-.293.29-.41a1.35 1.35 0 01.435-.274c.163-.064.337-.097.513-.097h10.96c.355-2.471.816-4.89 1.379-7.222H8.129zM44.004 2.54c-3.371.096-6.718.57-9.97 1.413-3.484 4.035-6.348 9.743-8.339 16.611h18.309zm2.68 0v18.026h18.308C63 13.695 60.136 7.988 56.653 3.954a44.896 44.896 0 00-9.97-1.414zm41.31 38.97c-.206-6.464-2.07-12.783-5.434-18.418H68.415a78.638 78.638 0 011.378 7.223h10.96c.356 0 .696.133.948.37.25.237.392.558.392.894v9.932h5.9zM82.56 62.454c3.363-5.635 5.227-11.955 5.433-18.418h-5.9v9.931c0 .166-.034.33-.101.484a1.263 1.263 0 01-.29.41 1.355 1.355 0 01-.436.275 1.41 1.41 0 01-.513.096h-10.96a78.223 78.223 0 01-1.378 7.223h14.142zm-16.898.001a74.732 74.732 0 001.425-7.223H46.68v7.223zm13.752-9.752V32.842H11.273v19.862zm-12.327-22.39a74.895 74.895 0 00-1.423-7.222h-18.98v7.223zm-42.062-7.222a74.694 74.694 0 00-1.425 7.223H44v-7.223zM23.6 55.232a74.934 74.934 0 001.423 7.223h18.98v-7.223zm37.405 24.99l.003-.005-.005.002zm.003-.005c8.13-3.045 15.08-8.36 19.918-15.235h-13.16a51.913 51.913 0 01-6.758 15.235zm19.915-59.653c-4.838-6.876-11.789-12.194-19.92-15.24a51.956 51.956 0 016.76 15.24zM29.684 5.327c-8.132 3.045-15.082 8.361-19.92 15.237h13.162a51.95 51.95 0 016.76-15.24zM9.764 64.982c4.837 6.877 11.788 12.194 19.92 15.24a51.927 51.927 0 01-6.76-15.24z"/><path d="M31.396 45.08l-2.663-7.63h-2.235l-2.68 7.63-2.416-7.63H19.15l3.584 10.653h2.038l2.844-7.908 2.827 7.908h2.055l3.566-10.653h-2.252zm16.777 3.023h2.054l3.567-10.653h-2.252l-2.416 7.63-2.663-7.63h-2.235l-2.68 7.63-2.416-7.63H36.88l3.583 10.653h2.039l2.844-7.908zm12.059 0l2.843-7.908 2.827 7.908h2.055l3.567-10.653h-2.252l-2.417 7.63-2.662-7.63h-2.236l-2.679 7.63-2.416-7.63H54.61l3.583 10.653z"/></svg>