<svg xmlns="http://www.w3.org/2000/svg" width="85" height="81"><path d="M9.717 29.308c.243.229.562.344.88.344.319 0 .638-.115.88-.344a1.128 1.128 0 000-1.661l-3.022-2.851 3.023-2.851a1.128 1.128 0 000-1.661 1.299 1.299 0 00-1.76 0l-3.903 3.681c-.234.22-.365.52-.365.83 0 .312.131.61.365.831zm12.36-4.512l-3.023 2.852a1.128 1.128 0 00.001 1.66c.243.23.561.344.88.344.319 0 .637-.115.88-.344l3.903-3.682a1.127 1.127 0 000-1.66l-3.903-3.682a1.298 1.298 0 00-1.76 0 1.127 1.127 0 000 1.66zm-8.667 4.775c.15.055.304.082.455.082.497 0 .966-.283 1.159-.745l3.066-7.364c.252-.604-.064-1.285-.703-1.522-.64-.237-1.363.06-1.614.663l-3.067 7.364c-.25.603.064 1.285.704 1.522zm-6.005 6.968h8.386c.687 0 1.245-.526 1.245-1.175 0-.648-.558-1.174-1.245-1.174H7.405c-.688 0-1.245.526-1.245 1.174 0 .649.557 1.175 1.245 1.175zm27.693-2.349H20.355c-.688 0-1.245.526-1.245 1.174 0 .649.557 1.175 1.245 1.175h14.743c.688 0 1.246-.526 1.246-1.175 0-.648-.558-1.174-1.246-1.174zM7.405 41.489h3.572c.687 0 1.245-.526 1.245-1.175 0-.648-.558-1.174-1.245-1.174H7.405c-.688 0-1.245.526-1.245 1.174 0 .649.557 1.175 1.245 1.175zm23.14-2.349c-.688 0-1.245.526-1.245 1.174 0 .649.557 1.175 1.245 1.175h2.175c.688 0 1.245-.526 1.245-1.175 0-.648-.557-1.174-1.245-1.174zm-3.27 1.174c0-.648-.558-1.174-1.245-1.174H15.345c-.688 0-1.245.526-1.245 1.174 0 .649.557 1.175 1.245 1.175H26.03c.687 0 1.245-.526 1.245-1.175zm8.155 0c0 .649.557 1.175 1.245 1.175h4.074c.688 0 1.246-.526 1.246-1.175 0-.648-.558-1.174-1.246-1.174h-4.074c-.688 0-1.245.526-1.245 1.174zm-6.785-14.575h4.298c.688 0 1.245-.526 1.245-1.175 0-.648-.557-1.174-1.245-1.174h-4.298c-.688 0-1.245.526-1.245 1.174 0 .649.557 1.175 1.245 1.175zm9.11 0H63.98c.688 0 1.245-.526 1.245-1.175 0-.648-.557-1.174-1.245-1.174H37.755c-.688 0-1.245.526-1.245 1.174 0 .649.557 1.175 1.245 1.175zm22.243 2.811H49.375c-.688 0-1.245.526-1.245 1.175 0 .648.557 1.174 1.245 1.174h10.623c.687 0 1.244-.526 1.244-1.174 0-.65-.557-1.175-1.244-1.175zm-14.602 0h-3.651c-.688 0-1.245.526-1.245 1.175 0 .648.557 1.174 1.245 1.174h3.651c.688 0 1.245-.526 1.245-1.174 0-.65-.557-1.175-1.245-1.175zm-16.751 2.349h8.946c.687 0 1.245-.526 1.245-1.174 0-.65-.558-1.175-1.245-1.175h-8.946c-.688 0-1.245.526-1.245 1.175 0 .648.557 1.174 1.245 1.174zM26.04 44.05h-8.385c-.688 0-1.245.526-1.245 1.174 0 .648.557 1.174 1.245 1.174h8.386c.687 0 1.245-.526 1.245-1.174 0-.648-.558-1.174-1.245-1.174zm-12.193 0H7.405c-.688 0-1.245.526-1.245 1.174 0 .648.557 1.174 1.245 1.174h6.442c.688 0 1.245-.526 1.245-1.174 0-.648-.557-1.174-1.245-1.174zm27.393 0H30.284c-.688 0-1.245.526-1.245 1.174 0 .648.557 1.174 1.245 1.174h10.954c.688 0 1.245-.526 1.245-1.174 0-.648-.558-1.174-1.245-1.174zm14.815-6.03h-5.99c-.688 0-1.245.526-1.245 1.174 0 .649.557 1.175 1.245 1.175h5.99c.688 0 1.245-.526 1.245-1.175 0-.648-.557-1.174-1.245-1.174zm10.4 2.349h8.456c.688 0 1.245-.526 1.245-1.175 0-.648-.557-1.174-1.245-1.174h-8.456c-.688 0-1.245.526-1.245 1.174 0 .649.557 1.175 1.245 1.175zm-4.232-2.349h-1.938c-.688 0-1.245.526-1.245 1.174 0 .649.557 1.175 1.245 1.175h1.938c.688 0 1.245-.526 1.245-1.175 0-.648-.557-1.174-1.245-1.174zM50.065 53.168h5.99c.688 0 1.245-.525 1.245-1.174 0-.648-.557-1.174-1.245-1.174h-5.99c-.688 0-1.245.526-1.245 1.174 0 .649.557 1.174 1.245 1.174zm16.39 0h8.456c.688 0 1.245-.525 1.245-1.174 0-.648-.557-1.174-1.245-1.174h-8.456c-.688 0-1.245.526-1.245 1.174 0 .649.557 1.174 1.245 1.174zm-6.17 0h1.937c.688 0 1.246-.525 1.246-1.174 0-.648-.558-1.174-1.246-1.174h-1.937c-.688 0-1.245.526-1.245 1.174 0 .649.557 1.174 1.245 1.174zm-4.23 10.452h-5.99c-.688 0-1.245.526-1.245 1.174 0 .648.557 1.174 1.245 1.174h5.99c.688 0 1.245-.526 1.245-1.174 0-.648-.557-1.174-1.245-1.174zm18.855 0h-8.455c-.688 0-1.245.526-1.245 1.174 0 .648.557 1.174 1.245 1.174h8.456c.688 0 1.245-.526 1.245-1.174 0-.648-.557-1.174-1.245-1.174zm-12.687 0h-1.938c-.688 0-1.245.526-1.245 1.174 0 .648.557 1.174 1.245 1.174h1.938c.688 0 1.245-.526 1.245-1.174 0-.648-.557-1.174-1.245-1.174z"/><path d="M79.499.07c3.02 0 5.478 2.318 5.477 5.168l-.094 56.82c0 2.447-1.814 4.501-4.24 5.033v.552c0 1.274-1.098 2.31-2.448 2.31H55.181v1.485h3.759c2.507 0 4.547 1.924 4.547 4.289v2.537c0 1.08-.93 1.957-2.075 1.957H23.39c-1.144 0-2.075-.878-2.075-1.957v-2.537c0-2.365 2.04-4.29 4.547-4.29h3.759v-4.211H17.652c-.687 0-1.245-.525-1.245-1.174 0-.649.558-1.174 1.245-1.174h26.675v-2.941c0-1.274 1.098-2.31 2.448-2.31h.987v-2.024H2.41v4.455c0 1.555 1.34 2.82 2.989 2.82h4.685c.687 0 1.244.525 1.244 1.174 0 .649-.557 1.174-1.244 1.174H5.399c-3.02 0-5.479-2.318-5.479-5.168V5.238C-.08 2.389 2.378.07 5.399.07zm-1.346 54.737V49.18H46.816v5.628zm-3.436-7.977v-2.471H50.251v2.47zM50.251 57.156v2.471h24.466v-2.471zm-18.14 14.282h20.58v-1.485h-5.916c-1.35 0-2.448-1.036-2.448-2.309v-.418H32.11zm-6.249 2.348c-1.134 0-2.057.87-2.057 1.941v2.146h37.193v-2.146c0-1.07-.923-1.94-2.058-1.94zm52.29-11.81H46.817v5.628h31.337zm4.24-4.373h-5.185v2.024h.987c1.35 0 2.449 1.036 2.449 2.31v2.684c1.03-.446 1.75-1.426 1.75-2.563zm0-41.56H2.41v39.212h41.957c-.025-.133-.04-6.116-.04-6.116 0-1.273 1.097-2.31 2.448-2.31h.987v-2.47h-.987c-1.35 0-2.449-1.036-2.449-2.31v-5.707c0-1.273 1.098-2.31 2.449-2.31h16.642c.688 0 1.245.526 1.245 1.175 0 .648-.557 1.174-1.245 1.174h-16.6v5.63h31.336v-5.63h-6.99c-.688 0-1.245-.526-1.245-1.174 0-.649.557-1.175 1.245-1.175h7.031c1.35 0 2.449 1.037 2.449 2.31v5.707c0 1.274-1.099 2.31-2.449 2.31h-.987v2.47h.987c1.35 0 2.449 1.037 2.449 2.31 0 0-.016 5.983-.041 6.116h1.79zm0-10.804c0-1.555-1.34-2.82-2.988-2.82H5.49c-1.648 0-2.989 1.265-2.989 2.819v8.457h79.892z"/><path d="M12.756 8.026c0 1.9-1.639 3.446-3.653 3.446-2.014 0-3.653-1.546-3.653-3.446 0-1.9 1.639-3.446 3.653-3.446 2.014 0 3.653 1.546 3.653 3.446zm-2.49 0c0-.605-.521-1.098-1.163-1.098-.641 0-1.164.493-1.164 1.098 0 .605.523 1.098 1.164 1.098.642 0 1.163-.493 1.163-1.098zm11.79 0c0 1.9-1.638 3.446-3.653 3.446-2.014 0-3.653-1.546-3.653-3.446 0-1.9 1.64-3.446 3.653-3.446 2.014 0 3.653 1.546 3.653 3.446zm-2.489 0c0-.605-.522-1.098-1.164-1.098-.641 0-1.163.493-1.163 1.098 0 .605.522 1.098 1.163 1.098.642 0 1.164-.493 1.164-1.098zm11.789 0c0 1.9-1.639 3.446-3.653 3.446-2.014 0-3.653-1.546-3.653-3.446 0-1.9 1.639-3.446 3.653-3.446 2.014 0 3.653 1.546 3.653 3.446zm-2.49 0c0-.605-.521-1.098-1.163-1.098-.641 0-1.164.493-1.164 1.098 0 .605.523 1.098 1.164 1.098.642 0 1.163-.493 1.163-1.098z"/></svg>