<svg xmlns="http://www.w3.org/2000/svg" width="84" height="79"><path d="M51.715 52.96c-.897 0-1.625.687-1.625 1.533 0 .846.728 1.533 1.625 1.533s1.625-.687 1.625-1.533c0-.846-.728-1.533-1.625-1.533z"/><path d="M75.442-.09c4.48 0 8.126 3.439 8.126 7.665v46.912c0 4.227-3.646 7.666-8.126 7.666H50.09v7.052h1.625c4.48 0 8.125 3.438 8.125 7.665 0 .847-.727 1.533-1.625 1.533H25.712c-.897 0-1.625-.686-1.625-1.533 0-2.047.846-3.97 2.38-5.42 1.536-1.447 3.576-2.245 5.746-2.245h1.625v-7.052H8.486c-4.48 0-8.126-3.439-8.126-7.666V7.575C.36 3.35 4.005-.09 8.486-.09zM8.486 2.976c-2.689 0-4.876 2.063-4.876 4.6v39.246h7.476V23.826c0-.238.06-.463.161-.662l.01-.024 6.501-12.264c.275-.52.838-.848 1.454-.848.615 0 1.178.328 1.453.848l6.501 12.264.01.024c.1.197.161.419.161.662v22.996h8.135c.018-1.571.064-3.136.137-4.668.309-6.42 1.018-10.753 1.37-12.587-3.036-2.417-3.72-6.512-1.788-9.674l5.635-9.204c.29-.474.827-.767 1.408-.767.58 0 1.116.293 1.407.767l5.633 9.203c2.05 3.354 1.134 7.67-2.219 10 .337 1.839.985 6.021 1.27 12.265.07 1.516.113 3.08.13 4.665h8.135v-35.26c0-.847.728-1.534 1.625-1.534h13.001c.898 0 1.626.687 1.626 1.533v35.261h7.475V7.575c0-2.536-2.187-4.599-4.875-4.599zM69.59 46.822v-3.066h-1.625c-.897 0-1.625-.686-1.625-1.533 0-.847.728-1.533 1.625-1.533h1.625v-6.133h-1.625c-.897 0-1.625-.686-1.625-1.533 0-.846.728-1.533 1.625-1.533h1.625v-4.599h-1.625c-.897 0-1.625-.686-1.625-1.533 0-.847.728-1.533 1.625-1.533h1.625v-4.6h-1.625c-.897 0-1.625-.686-1.625-1.532 0-.847.728-1.533 1.625-1.533h1.625v-3.067h-9.75v33.728zm-29.587-15.73c-.32 1.886-.785 5.163-1.06 9.598h6.05c-.262-4.438-.705-7.665-1.007-9.489a8.59 8.59 0 01-3.983-.109zm6.454-9.668l-4.224-6.903-4.228 6.904c-1.882 3.08.513 6.894 4.228 6.894 3.737 0 6.1-3.827 4.224-6.894zm-7.663 22.332a127.876 127.876 0 00-.073 3.066h6.484a133.416 133.416 0 00-.07-3.066zm-14.708 3.066V25.359h-3.25v21.463zm-6.5 0V25.359h-3.25v21.463zm5.496-24.53l-3.871-7.303-3.871 7.304zM56.31 75.338c-.67-1.784-2.477-3.066-4.596-3.066H32.213a4.996 4.996 0 00-3.447 1.347 4.56 4.56 0 00-1.152 1.72zm-9.47-13.185h-9.75v7.052h9.75zm28.603-3.066c2.688 0 4.875-2.064 4.875-4.6v-4.599H3.61v4.6c0 2.536 2.187 4.599 4.876 4.599z"/><path d="M45.216 52.96h-9.75c-.898 0-1.626.686-1.626 1.533 0 .847.728 1.533 1.625 1.533h9.751c.898 0 1.625-.686 1.625-1.533 0-.847-.727-1.533-1.625-1.533z"/></svg>